<svg width="24" height="24" viewBox="0 0 24 24" fill="none" xmlns="http://www.w3.org/2000/svg">
<path d="M16.0003 5.99994L15.0003 5.99994L15.0003 6.99994L16.0003 6.99994V5.99994Z" fill="#fff"/>
<path d="M8.00027 16.9999L9.00027 16.9999V17.9999L8.00027 17.9999V16.9999Z" fill="#fff"/>
<path d="M15.0003 5.99994V4.99994L6.00027 4.99994V5.99994L15.0003 5.99994Z" fill="#fff"/>
<path d="M6.00027 5.99994L5.00027 5.99994L5.00027 8.99994L6.00027 8.99994L6.00027 5.99994Z" fill="#fff"/>
<path d="M8.00027 6.99994L7.00027 6.99994V8.99994L6.00027 8.99994L6.00027 9.99994H7.00027L7.00027 16.9999H8.00027L8.00027 6.99994Z" fill="#fff"/>
<path d="M14.0003 9.99994V8.99994H10.0003V9.99994L14.0003 9.99994Z" fill="#fff"/>
<path d="M12.0003 12.9999V11.9999H10.0003V12.9999L12.0003 12.9999Z" fill="#fff"/>
<path d="M10.0003 14.9999L10.0003 15.9999H18.0003V14.9999H17.0003L17.0003 6.99994L16.0003 6.99994L16.0003 14.9999L10.0003 14.9999Z" fill="#fff"/>
<path d="M19.0003 15.9999H18.0003V17.9999L19.0003 17.9999V15.9999Z" fill="#fff"/>
<path d="M9.00027 17.9999V18.9999L18.0003 18.9999V17.9999H9.00027Z" fill="#fff"/>
</svg>
